<?xml version="1.0" encoding="utf-8"?>
<!-- Generator: Adobe Illustrator 24.1.3, SVG Export Plug-In . SVG Version: 6.00 Build 0)  -->
<svg version="1.1" id="Calque_1" xmlns="http://www.w3.org/2000/svg" xmlns:xlink="http://www.w3.org/1999/xlink" x="0px" y="0px"
	 viewBox="0 0 595.3 553.9" style="enable-background:new 0 0 595.3 553.9;" xml:space="preserve">
<style type="text/css">
	.st0{fill:#BA9765;}
</style>
<path class="st0" d="M197.7,276c0,11-1.6,19-4.1,25l-29.5,8.2h-26.4L197.7,276z M140.5,282.6c-7.7,6-27.4,12-27.1-0.8
	c20.4,4,25.1-25.1,43.4-16.5C152.2,266.1,148.1,276.7,140.5,282.6 M89.4,271.5c10.5-15.6,18.7,5.9,36.2-6c5.8,9.2-8.5,14.9-16.8,9.8
	C100.4,270.1,93.7,269.8,89.4,271.5 M189.6,241c13.9,0,22.1-4.6,25.6-8.1c-1.4,10-12,13.4-25.4,13.4c-13.5,0-25.9-14.9-36.2-4.9
	c18-2.1,20.7,16.9,41.1,10.5c-17.6,19-30.5-14.5-50.8-4.8C154.2,222.7,175.8,241,189.6,241 M217.6,224.9
	c3.9,4.3-20.6,15.4-32.7,11.2C205.1,236.3,213.6,220.5,217.6,224.9 M196.5,309.3h-4.3c3-4.3,5.4-9.6,7.9-15.5
	C200.2,297.4,199.3,303.4,196.5,309.3 M234.1,232.2c-4.5,4-25,21.9-18.6,70.9c6.5-10.6,1-50.6,20-65.2c-13.4,16.3-6.3,45.2-16,71.3
	h-9.4C212.9,288.2,201.2,256.6,234.1,232.2 M231.1,309.3h-7.3c11-20.5,4.9-53.7,14.3-63.9C231.5,257.2,241.9,285.8,231.1,309.3
	 M249.3,309.3h-11.2l6-9.6C247.1,303.5,248.7,306.6,249.3,309.3 M247.9,257.5l0.3-2.6c0.9,31.9,24.1,37,24.1,52.9c0,0.5,0,1,0,1.4
	h-4.1c0.3-2.9-0.4-5.8-2.5-8.6c-15.1-20.2-15.8-24.5-15.8-24.5c1.3,15.3,11.1,17.3,13.4,33.2H257
	C254.7,297.4,242.6,292.7,247.9,257.5 M261.2,242.6c13.4,0.8,27.5,7.5,27.5,7.5c1.6,3.4-2.4,14.4-5.9,15.5c-3.3,1-19.4-0.7-21.7-7.6
	c9.7,2.6,10.3-1,10.3-1s-8.9,0.1-12.4-6c6.9,2.4,10.2-0.1,10.2-0.1s-13.4-5.1-13.8-8.2H261.2z M275.3,229c-4.9,1.6-5.8,9.6,8.6,12.9
	c-4.7,0.7-16.1-1.5-16.5-9.4C267.1,226.3,275.5,225.7,275.3,229 M293,271c6.1,0,17.7-0.3,18.1-0.3c1.6,0,1.9,0.5,2,0.8
	c0,0.6-0.8,3.7-2,4c-0.1,0.1-11.4,2.7-18.1,2.4c-6.6,0.4-18-2.3-18.1-2.4c-1.2-0.3-2-3.4-2-4c0-0.3,0.3-0.8,2-0.8
	C274.9,270.7,286.9,271,293,271 M293.7,289.9c7,8.1,9,14,9.1,19.3h-4.3C298.8,304.1,297.8,298,293.7,289.9 M282.4,309.3
	c2.5-11-2-14.4-11.4-24.3c13.9,9.6,19,16.2,18.1,24.3H282.4z M314,309.3h-4.3c1.9-6.3,2.4-12.9-3-22.4
	C314.7,293.5,315.3,301.3,314,309.3 M322.5,309.3h-4.8c2.1-8,3.1-16.5-1.9-26.8C323.9,289,323.8,299.2,322.5,309.3 M335,309.3h-4.4
	l-5.1-14.5C329.5,296.7,332.4,302.2,335,309.3 M338.1,258.3c-12.4,26.6,18.2,43.3,23.9,48.6c0.7,0.6,1.3,1.4,2,2.3h-10.3
	c-3-6.3-6.2-11.2-9.8-12.8c2.5,3.8,4.3,8.1,6,12.8h-4.9C337.7,295.2,325.9,284.4,338.1,258.3 M144.9,212.4c-1-7.5,36.4-13,36.7-2.3
	C181.9,219.4,146.1,220.6,144.9,212.4 M129.5,189.1c-2.5-3.3-4.7-6.2-7.4-7.1c-3.5-1.1-7.4-1-10.8-0.8c-4.3,0.2-8,0.4-9.1-2.3
	c-0.8-1.7,0.1-3.5,2.3-5.2c2.3-1.6,5.6-2.7,9-2.9c3.8-0.3,7,0.7,9.2,2.6c2.1,1.9,2.9,2.1,3.3,1.9c0.5-0.3,0.4-1.5,0.3-2.4
	c-0.1-0.6-0.2-1.1,0.2-1c6,1,8.9,4.7,11.9,8.3c5.1,6.1,13,15.5,32.1,12.2C165.7,209.4,138.2,204.4,129.5,189.1 M122.1,195.8
	c-16.7-9.2-31.5,1.7-31.5,1.7C95.6,180.9,126.5,179.5,122.1,195.8 M151.5,83.6c-5.4,9.4-4.4,26.6,17.3,31.7
	C132.5,123.4,133.4,82.2,151.5,83.6 M451.8,272.4c6.6-17.6,27.3-25.2,35.9-9.8c0.4,0.8-0.2,1.4-1.8-0.1
	c-10.7-10.7-24.5-0.5-33.1,10.6C451.7,274.7,451.3,273.7,451.8,272.4 M448,188.3c9.4,4.1-19.8,32.5-28.8,31.5
	C437.9,214.3,438.5,184.2,448,188.3 M468.1,309.3l-37.4-22.1c7.4,1,14-2.3,20.1-6.7l11.4,13.9l-7-17.2c7.6-6,13.8-12.3,21.5-12.5
	c21.1-0.6,6.3,24.8,14,24.9c8.6,0.1,18-28.2-2.7-40.6c-21.4-12.9-40.1,5.7-55.2,2.6l56.7-25.3h-82.9l-2.9-5.5
	c15,6.7,25.7,0.5,32.8-6.6l23.6,3.4l-19.5-7.6c4.7-4.9,8.6-8.7,13.5-6.8c7,2.7,11.1,8.8,23.2,8.9c20.5,0.3,35.4-36.2,8.3-52
	c2,26-10,27.3-31.1,13.5l7.2-11.8l-10.8,9.5c-20.2-9-30,8.9-38.5,14.7c-8.5,5.7-16.3-5.8-26.6,7.9c15.4-5.1,23.2,9.7,33.4,0
	c-4.2,26.1-19.2-7.9-34.1,5.1c13,1,19.7,12.5,30,12.5c19,0,2.1-36.5,28.8-36.5l-4.4-2.8c15.2-1.4,15.9,13.7,38.8,14
	c2.4,3.5-6,3.7-11.8,1.7c-1,4.9,31,15.8,23.3-20.6c10.1,5.5,7.9,28.3-1.5,37c-1.8,1.7-3.6,2.5-4.7,0.8c-2.6-3.9,4-3.8,5.9-9.7
	c-7.1,6.2-19.3,5.7-27.7-2c-8.3-7.7-20.8-17.2-26.1-0.9c-5.3,16.3-9.8,23.9-19.6,24c-13.5,0.2-27.9-22.4-42.9-9.9
	c28.7,2.7,35.5,48.2,60.7,48.8c19.6,0,24-8.6,36.8-8.6c12.8,0,26.2,6.7,26.2,23.6c0,10.2-5.4,15.9-5.4,15.9s3.9-8.2,1.9-18.7
	c-1.9-10-10.5-16.2-21.6-16.2c-15.8,0-28.4,25.8-45.9,25.8c-35,0-44-67.6-80.7-57.2c27,18.2,30,47.4,44.5,58.6
	c14.7,11.3,32.2,6.7,42,15.2c4,3.5,5.6,9.3,6.9,15.7h-3.3c-1.2-3.3-2.9-6.3-5.9-8.8c-8.4-8.8-33.6-5-45.2-17.5
	c-11.6-12.5-20.1-50.1-42.9-55.9c19.9,12.8,24.3,45.7,38.6,61.8c14.2,16.1,33,7.6,41.7,16c1.5,1.5,2.8,2.9,4,4.4h-16.3
	c-1.4-0.2-3-0.4-4.7-0.5c-2.6,0-5.3,0.2-8,0.5H374c-3-0.9-5.7-2.5-8.1-5c-11.3-11.9-10.2-24.5-9.3-39.3c2.2,13.9,4.9,45.9,28.8,42.3
	c-30.1-10.3-12.6-61.8-49.4-75.1c-4-1.4-2.6-14.4,7.4-16.3c-19.9,3.8-19.7-3.5-5.7-18.1c-8.6,5.5-18.1,3.9-20.2,10.1
	c0,0,16.3,25.6,16.3,30.6c0,5-10.7,25.1-11.9,25.8c-4,2.2-17.1,2.3-20.4,1.3c-3.5-1.1-7.5-12-5.9-15.5c2.5-5.3,22.6-9.7,23-17.6
	c0.3-6.2-8.1-6.8-7.8-3.5c4.9,1.6,7,8.8-7.3,12.1l3.2-5.1c0,0-10.5,8.4-11.1,8.8c-0.5,0.4-3,0.5-4.6,0.1
	c-1.5-0.5-16.8-7.8-14.2-15.1c0,0,4.6,2,16.1,2c11.6,0,12.7-5,12.7-5s-6.2,1.6-12.5,1.6c-6.3,0-12.5-1.6-12.5-1.6
	c-5-1.2,0.3-7.5,2.1-7.6h12c0.7,0,1.7-1.7,0.1-1.8c-1.2,0-8.9-0.2-9.4-2.1c-1-3.2-3.1-23.3-3.1-23.3s2.6-6.3,0.4-8.3
	c-2.2-2.1-3.2-1-3.2-1c5,27.9-16.4,45.2-28.6,41.9l-1.5-0.2c2.8,2.1,6.3,3.9,10.9,5.5c-22.8,4.8-32.1-9.1-35.8-17.5
	c-2,1-2,6.4-1.8,9.9c-4.7-5.2-7.6-13.2-3.3-19c-5.8,2.8-6,3.7-6,3.7c0.2-4.8,8.6-7.9,12.8-13.5c4.2-5.6,3.3-14.2-5.7-17.8
	c0.6,8.6-3.7,14.4-12.4,17.4c-8.4,2.8-7-4.8-14.8-3.1c12.8,2.9,12.1,20.5,24.8,27.8c-17-4-20-27.2-40.7-24.9
	c11.9-17,30.8-2.4,38.6-14.1c-20.2,4.6-33.9-12.4-36.3-31.1c-3.6-28.6-27.7-14.5-27.3-28.6c12.1,5.5,39.1-15.3,47,8.4
	c8.4,24.8,25.2,34.9,40.3,23.4l-65.9-66.9l8.3,28.1c-17.2,3.4-37.9-6.9-26.7-31c-16.3-7.6-37.9,19.5-18,40.8
	c9.2,9.8,31.6,6.2,37.6,26.2l-21.4-1.8l21.9,5.8l6.5,19.4l-51-25.2l31.4,36.6c-18.3,9.7-22.9-18.1-46.7-17.5
	c-16.6,0.4-35.3,17.5-27.5,37.5c24.9-15.1,32.9-4.3,43.4,6.1l-15.3,8.2l18.1-5.5c6.4,6,14.3,11,27.4,10.1
	c21.5-1.6,40.4-8.5,45.3-2.7c3.8,4.5-0.6,7.1-8.3,7.1H96.4l41.2,22.1c-4,3.1-15.4,17.2-23.4,17.2c-7.9,0-25.7-12.2-30.4,9.2
	c18.3-3.1,27.6,36.9,66.1,5l-18,29.8H35.3v10.3h525.5v-10.3H468.1z"/>
<path class="st0" d="M309.6,154.4c-14.3,1.6-12,20.9-1.3,20.9c10.7,0,12.3-5,20.4-5c8.1,0,11,5.3,17.5,5.3c6.4,0,10.4-4.7,7.4-8.7
	c-4.2,6.9-11.7-2.5-17.2-2.5c-8.4,0-12,3.5-17.5,6.2c-6.2,3.1-12,0.2-9.8-3.4C304.6,167.1,301.5,161.3,309.6,154.4"/>
<path class="st0" d="M361.3,95.1c-13.8,20.5,4.5,41.5-24.4,48.8c34.4,0.3,16.5-28.9,29-45.8c12.5-16.9,26.8-10.6,31.4-30.1
	C390,83.8,369.2,83.3,361.3,95.1"/>
<path class="st0" d="M370.5,101.9c-11.1,16.4,1.7,40.1-21.5,47c29.2,0.7,15.2-33,25.7-44.7c9.2-13.5,17.7-11.1,22-25.4
	C390.5,90.1,376.8,92.5,370.5,101.9"/>
<path class="st0" d="M411.5,152.3c-24.1-9.8-38.4,12.9-38.4,19.7c5.9-2.8,15.4-13.3,19-15.6C398.6,152,408.8,154.7,411.5,152.3"/>
<path class="st0" d="M354.8,187.9c1.8,3.9,8.9-4.8,19.8-1.4C369.3,183,353.8,183,354.8,187.9"/>
<path class="st0" d="M434.4,140.2c-5.1,23.6-49.4,6.2-49.1,39.8C394.7,163.3,438.2,164.8,434.4,140.2"/>
<path class="st0" d="M346.7,199.1c0.8,5.1,9.7-5.4,26.8,1.9C367.5,192.5,345.4,191.6,346.7,199.1"/>
<path class="st0" d="M316.3,243.2c-2.3,1.6-7.9,3.2-12.2,6.2c-0.5,0.7-1.2,3.4-2.1,4C306.4,254.3,315.9,247.9,316.3,243.2"/>
<path class="st0" d="M258.5,196.6c3.1-3.3,5.2-11.1,5.7-12.3C270.9,189.4,264.2,198.8,258.5,196.6 M253.3,195c-6.9-2.6-4-16,5.2-14
	C257.9,182.1,253.7,190.2,253.3,195 M261.1,178c-6.7-1.4-14.6,5.4-22.4,8.9c7.3,10.5,24.2,11.3,31,15.1
	C271.2,199.7,276.3,181,261.1,178"/>
<path class="st0" d="M285.3,167.2c-7.3,8.6-12.6-0.8-21.9-0.8c-8-0.1-17.3,8.9-18.9,3.1c-1.3-4.5,7-12,17.7-12.8
	c-9.2-2.5-24.1,5.9-26.8,15.2c-3,0.3-5.4-0.5-5.4-0.5c3.7,15.8,19.7-0.4,27.1-0.4C263.9,170.9,284.9,186.2,285.3,167.2"/>
<path class="st0" d="M309.5,67.3c8,25.2-18.2,31.9-20.4,48.5C287.5,95.7,312.6,86.2,309.5,67.3 M283.2,71.3l8,20.9
	c0,0-7.3,8.5-7.3,23.7c0,29.7,24.4,32.5,22.7,20.5c-17.1,7.8-18-17-13.3-22.2c0,0-3.1,13,8.3,17.7c-15.3-25.3,14.8-34.9,14.8-55.1
	c0-16.8-10.4-22.3-10.1-37.8c0.2-18.6,27.6-23.4,27.9-16.3c0.3,5.1-19.8,5.7-20.2,24.8c-0.3,17.9,19.8,22.3,19.3,39.7
	c-0.3,11.4-20.8,22-8.1,43.5l29.1-82.1l-22.3,25.2c-7.1-8.9-12.7-9.7-12.7-25.7c0-16,17.8-18.3,17.8-25.8c0-6-9-6.8-15.5-7.1
	c-10.1-0.4-27.9,8.3-27.9,26.9c0,18.6,12.6,28,0.1,45.5L283.2,71.3z"/>
<path class="st0" d="M264.3,204.8c-4.1-2.8-18.8-2.3-27-10.8c0,0-0.7,1.7,0.2,3.2c-10.2,4.1-7.3,13.7-7.3,13.7s6.6-8.1,10.8-7.9
	c0,0-0.9,6.4,0.9,9.4l0.9,1.4C239.3,200.5,264.3,204.8,264.3,204.8"/>
<path class="st0" d="M195.6,42c-4.5-5.4,17.6-11.5,21.6,2.1C206.4,36.9,197.7,44.5,195.6,42 M189.4,87.9l18.3,8.8
	c0.6,6.3,3.2,13,9.6,20.4c7.1,8.3,26.5,10.8,27.3,30.3c5.9-5.9,1.3-19.7-11.9-27.5c-49.2-28.9,33.6-74.1-19.6-90.4
	c46-3.1,26.3,38.5,30,55.2c5.1,22.9,26.3,17.4,37.7,31.8l-12.5-69.8l-11.8,48.6c-15.6-2.3-10.1-24.5-9.7-44.6
	c0.7-38.1-64.5-27.2-55.6-5.7c3.3,8.2,25.4-10.1,25.6,9.2c0.1,13.2-8.1,24.5-9,37.4L189.4,87.9z"/>
<path class="st0" d="M234.7,81.9c-21.7,41,53.3,22.3,43.5,57.2C294,101.4,226.5,122.4,234.7,81.9"/>
<path class="st0" d="M429,269.8c12.5-0.3,22.3-12.6,29.4-17.1c-10.1,2.3-15.5,11.4-29.4,11.7c-22.8,0.5-34.8-64.1-73.6-50.9
	C395.4,216.6,394.5,270.6,429,269.8"/>
<path class="st0" d="M261.6,134.9c-1.1,0-2.1-0.3-3-0.9c-5.1-3.3-7.9-12.2-13.1-11.2c3,2.3,1.7,10.7,6,15.4c2,2.3,5,3.8,8.4,3.8
	c6.2,0,11.1-5,11.1-11.2c0-3.6-1.7-6.8-4.3-8.8c-3.9-3.1-9.5-5.1-25.8-10.7c-38.8-13.2,19.3-52.6-7.5-74.6
	c14.7,31.7-28.2,50.6-5.9,72.8c9.7,10.1,30.8,8.5,38.1,15.7c1.1,1,1.7,2.5,1.7,4.1C267.3,132.3,264.7,134.9,261.6,134.9"/>
<path class="st0" d="M228.2,158.4c-7-0.2-18.2-3.5-22.1-12.9C202.4,154,213.6,177.1,228.2,158.4"/>
<path class="st0" d="M319.7,249.6c-0.4,1.1-3.6,2.3-9.9,4.7c-0.9,1.5-2.8,3.8-4.8,5C312.7,261.4,321.1,253.7,319.7,249.6"/>
<path class="st0" d="M352.1,181.3c1.6,2.6,3.9-2.4,8.3-4.7C354.7,175.8,351.3,179.8,352.1,181.3"/>
<path class="st0" d="M321.8,181.9c0.5,1.2,2.7,9.1,5.7,12.3C321.8,196.4,315.2,187,321.8,181.9 M332.8,192.7c0,0-4.6-13-5.2-14
	C336.8,176.7,339.7,190,332.8,192.7 M347.4,184.9c-7.7-3.6-15.7-10.3-22.4-9c-15.3,3-10.1,21.7-8.6,24.1
	C323.2,196.2,340.2,195.4,347.4,184.9"/>
<path class="st0" d="M424.1,117.5c4.2,7.2-8.3,20.2-8.3,20.2c3.3,1.2,3.1,5.9-0.9,7.1c-7.4,2.2-13.3-6.1-22.8-3.7
	C394,137.7,413.8,138.4,424.1,117.5 M381,139.6c-6.9,7.5-6.4,13.7-16.6,20.2c13.3,5.8,13.7-11.9,27-15.8c9.1-2.7,16,8.3,29,2.4
	c13.1-6,8.4-30.1,14.7-40.8c6.3-10.6,23.8-20.5,36.1,0.9c0,0-20.9-20.5-30.7,4c6.8-5.7,16.9-7.4,16.9-2c-5.4,1.7-14,4.9-14.3,24
	c-0.3,22.3-9.3,27.1-16.3,31.7c-10.1,6.7-33.7,6.4-38.9,21.6l81.6-36.4h-24.9c3.2-18.3-3.8-45.5,30.2-39.2c4.2-9.1-24.2-38.2-48.9-5
	l-2.4-8.4C418.6,141.1,395.2,123.9,381,139.6"/>
<path class="st0" d="M222.4,169.5c-34.4,0.6-9.1-37.2-34.7-42.7c13.2,8.9,6,16.9,6.1,31.4C193.8,175.6,214.7,180.9,222.4,169.5"/>
<path class="st0" d="M342.8,118.7c-4,10.8-15,13.8-20.4,23.1c3,0.1,19-3.5,24.9-13.6c5.7-9.7,0.1-37.9,18.4-44.8
	c19.2-7.3,39.2-17.9,16.6-41c34.8,8.8,15.2,45.9,11.1,51.3c-3.9,5.1-16.7,15.2-16.7,31.5c0,12.1-10.8,25.8-19.3,27.5
	c8.9,3.6,22.3-16.8,22.3-16.8L423,79.9l-24.9,12.9c0,0,6.8-5.9,6.8-25.4c0-27.7-29.7-32.6-29.4-24c0.2,5.7,10.1,9.7,10.4,19.1
	c0.3,9.4-12.9,14.7-23.2,17.7l-4.6-15.5v17.4C341.3,90.8,347,107.4,342.8,118.7"/>
<path d="M85.1,390.7c-0.1,3.1-0.8,4.3-2.7,5.5c-2,1.2-5.9,2-12,2H48v-15h22.4c6,0,10,0.8,12,2C84.3,386.4,85,387.6,85.1,390.7
	 M48,410.4h24.2c7.9,0,14.2-1.5,18.7-4.8c4.6-3.4,6.9-8.7,6.9-14.9c0-6.2-2.3-11.5-6.9-14.9c-4.5-3.3-10.8-4.8-18.7-4.8H35v64.3h13
	V410.4z"/>
<path d="M166.4,431.5c6.6-4.2,11.2-11.8,11.2-23.1V371h-13v37.4c-0.3,11.2-5.9,16.2-20,16.5c-14.1-0.3-19.8-5.4-20-16.5V371h-13
	v37.4c-0.1,11.3,4.6,18.9,11.2,23.1c6.6,4.2,14.6,5.3,21.9,5.3C151.8,436.8,159.9,435.7,166.4,431.5"/>
<path d="M243.2,393.9c-2.2,1.2-6.1,2-11.7,2h-21.9v-13h19.5c5,0,9.8,0.1,12.8,1c3,1.1,4,1.9,4.2,5.4
	C245.9,391.6,245.3,392.7,243.2,393.9 M244.2,421.7c-2.4,1.1-6.3,1.5-10.2,1.5h-24.4v-15.4h25.3c5,0,8.4,0.9,10.3,2.2
	c1.9,1.3,2.7,2.8,2.7,5.8C247.7,419.3,246.6,420.5,244.2,421.7 M248.6,433.1c6.6-2.1,12.6-7.7,12.4-17.1c0-7.7-4-12.1-7.7-14.6
	c3-2.3,5.8-6.1,5.8-12.1c0.1-8.8-5-14-10.6-16.1c-5.6-2.2-11.6-2.1-15.1-2.1h-36.8v64.3h32.9C234.6,435.3,242,435.4,248.6,433.1"/>
<polygon points="337.2,423.2 292.9,423.2 292.9,371 279.9,371 279.9,435.3 337.2,435.3 "/>
<rect x="349.9" y="371" width="13" height="64.3"/>
<path d="M438.5,409.9l-1.2,2.2c-4.4,8-10.9,12.4-22,12.5c-15.4-0.2-23.6-7.6-23.8-20.4c0.3-15.3,7.6-22.5,23.2-22.8
	c12.5,0.1,18.6,4.9,21.7,12.1l1,2.5l11.5-5.3l-1-2.3c-3.6-8.9-14.3-18.9-33.4-18.9c-11,0-20.1,3.1-26.5,9
	c-6.4,5.9-9.8,14.5-9.7,24.8c0,10.1,3.5,18.6,9.9,24.5c6.4,5.9,15.6,9,26.5,9h0.4c16.3,0,27.7-6.6,33.8-18.9l1.2-2.3L438.5,409.9z"
	/>
<rect x="464.9" y="371" width="13" height="64.3"/>
<path d="M549.7,399.8c-6.2-2.6-13.8-3.2-20.7-3.8c-5.7-0.5-11-1-14.4-2.2c-3.5-1.4-4.5-2.4-4.6-4.8c0-2.9,1.8-4.5,5.3-5.9
	c3.5-1.3,8.2-1.6,11.7-1.6c15.4,0.2,19.6,6.9,22,9.5l1.6,1.8l9.7-7.8l-1.6-2c-1.7-2.2-10.3-13.6-31.5-13.4c-9.2,0-16.6,1.6-22,5.1
	c-5.4,3.4-8.4,8.9-8.3,15.4c-0.1,7.7,4.9,12.5,10.9,14.7c6,2.3,13.3,3,20,3.6c5.8,0.6,11.3,1.1,15,2.4c3.8,1.4,5,2.6,5.1,5.1
	c0,3.6-2.8,5.7-7.3,7.2c-4.3,1.3-9.4,1.5-11,1.5c-19-0.3-22-8.5-24.5-11.2l-1.7-1.9l-10.1,8.6l1.9,2c3.8,4.1,11.6,14.7,33,14.7
	c0.2,0,0.4,0,0.6,0c11.3,0,19.3-2.4,24.6-6.3c5.3-3.9,7.7-9.4,7.7-14.5C560.9,407.6,555.9,402.2,549.7,399.8"/>
<path d="M83.9,499.3H107c-2.4,7.5-11.4,11.3-20.2,11.4c-15.1-0.2-23.3-7.6-23.5-20.4c0.3-15.3,7.5-22.4,22.8-22.7
	c5.4,0,17.4,1.5,21.5,11.8l1.1,2.6l11.2-5.9l-0.9-2.2c-4.4-10.5-16.5-18.2-32.6-18.2c-11,0-20.1,3-26.5,9
	c-6.4,5.9-9.8,14.5-9.7,24.8c0,10.1,3.4,18.6,9.9,24.5c6.4,5.9,15.5,9,26.4,9h0.2c9.7,0,16.6-2.7,21.2-5.8v4.4H120v-34.3H83.9V499.3
	z"/>
<path d="M191.6,476.3c-0.2,3.3-1,4.3-3.3,5.5c-2.4,1.1-6.5,1.6-11.6,1.6h-22.1v-14.1h22.1c5.1,0,9.2,0.5,11.6,1.6
	C190.6,472.1,191.4,473.1,191.6,476.3 M204.2,476.4c0-6.1-2.3-11.4-7-14.6c-4.6-3.2-10.9-4.6-19-4.7h-36.7v64.4h13v-25.9h18.5
	l18.8,25.9H208l-19.8-26.7C196.2,492.9,204.2,487.3,204.2,476.4"/>
<path d="M278.6,488.3c-0.1,16.8-11.9,22.1-24.1,22.4c-12.2-0.3-23.9-5.6-24-22.4c0.1-12.3,9.3-20.7,24-20.8
	C269.1,467.6,278.5,476,278.6,488.3 M254.5,455.6c-11,0-20.3,3.2-26.9,9.2c-6.6,6-10.3,14.6-10.2,24.8c0,11.2,4.9,19.8,12,25.3
	c7.1,5.4,16.3,8,25.1,8c8.8,0,18-2.5,25.1-8c7.2-5.4,12.1-14,12.1-25.3c0-10.2-3.7-18.8-10.3-24.8
	C274.8,458.9,265.5,455.6,254.5,455.6"/>
<path d="M359.1,494.4c-0.3,11.2-5.9,16.2-20,16.6c-14.1-0.4-19.8-5.4-20.1-16.6v-37.4h-13v37.4c0,11.3,4.6,18.9,11.2,23.1
	c6.6,4.2,14.6,5.3,21.8,5.3c7.2,0,15.2-1.1,21.8-5.3c6.6-4.2,11.3-11.8,11.2-23.1v-37.4h-13V494.4z"/>
<path d="M439.5,476.9c-0.1,3.1-0.7,4.3-2.7,5.5c-2,1.2-6,2-12,1.9h-22.4v-15.1h22.4c6.1,0,10,0.8,12,2
	C438.7,472.5,439.4,473.7,439.5,476.9 M445.3,461.9c-4.5-3.3-10.8-4.8-18.7-4.8h-37.2v64.3h13v-24.9h24.2c8,0,14.2-1.5,18.7-4.8
	c4.6-3.4,6.8-8.7,6.8-14.9C452.2,470.5,449.9,465.2,445.3,461.9"/>
<polygon points="478,494 515.9,494 515.9,481.9 478,481.9 478,469.3 523.4,469.3 523.4,457.1 465,457.1 465,521.4 524.3,521.4 
	524.3,509.3 478,509.3 "/>
</svg>
