<svg version="1.1" id="Calque_1" xmlns="http://www.w3.org/2000/svg" x="0" y="0" viewBox="0 0 595.3 553.9" xml:space="preserve"><style>.st0{fill:#ba9765}</style><path class="st0" d="M197.7 276c0 11-1.6 19-4.1 25l-29.5 8.2h-26.4l60-33.2zm-57.2 6.6c-7.7 6-27.4 12-27.1-.8 20.4 4 25.1-25.1 43.4-16.5-4.6.8-8.7 11.4-16.3 17.3m-51.1-11.1c10.5-15.6 18.7 5.9 36.2-6 5.8 9.2-8.5 14.9-16.8 9.8-8.4-5.2-15.1-5.5-19.4-3.8M189.6 241c13.9 0 22.1-4.6 25.6-8.1-1.4 10-12 13.4-25.4 13.4-13.5 0-25.9-14.9-36.2-4.9 18-2.1 20.7 16.9 41.1 10.5-17.6 19-30.5-14.5-50.8-4.8 10.3-24.4 31.9-6.1 45.7-6.1m28-16.1c3.9 4.3-20.6 15.4-32.7 11.2 20.2.2 28.7-15.6 32.7-11.2m-21.1 84.4h-4.3c3-4.3 5.4-9.6 7.9-15.5.1 3.6-.8 9.6-3.6 15.5m37.6-77.1c-4.5 4-25 21.9-18.6 70.9 6.5-10.6 1-50.6 20-65.2-13.4 16.3-6.3 45.2-16 71.3h-9.4c2.8-21-8.9-52.6 24-77m-3 77.1h-7.3c11-20.5 4.9-53.7 14.3-63.9-6.6 11.8 3.8 40.4-7 63.9m18.2 0h-11.2l6-9.6c3 3.8 4.6 6.9 5.2 9.6m-1.4-51.8l.3-2.6c.9 31.9 24.1 37 24.1 52.9v1.4h-4.1c.3-2.9-.4-5.8-2.5-8.6-15.1-20.2-15.8-24.5-15.8-24.5 1.3 15.3 11.1 17.3 13.4 33.2H257c-2.3-11.9-14.4-16.6-9.1-51.8m13.3-14.9c13.4.8 27.5 7.5 27.5 7.5 1.6 3.4-2.4 14.4-5.9 15.5-3.3 1-19.4-.7-21.7-7.6 9.7 2.6 10.3-1 10.3-1s-8.9.1-12.4-6c6.9 2.4 10.2-.1 10.2-.1s-13.4-5.1-13.8-8.2h5.8zm14.1-13.6c-4.9 1.6-5.8 9.6 8.6 12.9-4.7.7-16.1-1.5-16.5-9.4-.3-6.2 8.1-6.8 7.9-3.5m17.7 42c6.1 0 17.7-.3 18.1-.3 1.6 0 1.9.5 2 .8 0 .6-.8 3.7-2 4-.1.1-11.4 2.7-18.1 2.4-6.6.4-18-2.3-18.1-2.4-1.2-.3-2-3.4-2-4 0-.3.3-.8 2-.8 0 0 12 .3 18.1.3m.7 18.9c7 8.1 9 14 9.1 19.3h-4.3c.3-5.1-.7-11.2-4.8-19.3m-11.3 19.4c2.5-11-2-14.4-11.4-24.3 13.9 9.6 19 16.2 18.1 24.3h-6.7zm31.6 0h-4.3c1.9-6.3 2.4-12.9-3-22.4 8 6.6 8.6 14.4 7.3 22.4m8.5 0h-4.8c2.1-8 3.1-16.5-1.9-26.8 8.1 6.5 8 16.7 6.7 26.8m12.5 0h-4.4l-5.1-14.5c4 1.9 6.9 7.4 9.5 14.5m3.1-51c-12.4 26.6 18.2 43.3 23.9 48.6.7.6 1.3 1.4 2 2.3h-10.3c-3-6.3-6.2-11.2-9.8-12.8 2.5 3.8 4.3 8.1 6 12.8H345c-7.3-14-19.1-24.8-6.9-50.9m-193.2-45.9c-1-7.5 36.4-13 36.7-2.3.3 9.3-35.5 10.5-36.7 2.3m-15.4-23.3c-2.5-3.3-4.7-6.2-7.4-7.1-3.5-1.1-7.4-1-10.8-.8-4.3.2-8 .4-9.1-2.3-.8-1.7.1-3.5 2.3-5.2 2.3-1.6 5.6-2.7 9-2.9 3.8-.3 7 .7 9.2 2.6 2.1 1.9 2.9 2.1 3.3 1.9.5-.3.4-1.5.3-2.4-.1-.6-.2-1.1.2-1 6 1 8.9 4.7 11.9 8.3 5.1 6.1 13 15.5 32.1 12.2-4.8 17-32.3 12-41-3.3m-7.4 6.7c-16.7-9.2-31.5 1.7-31.5 1.7 5-16.6 35.9-18 31.5-1.7m29.4-112.2c-5.4 9.4-4.4 26.6 17.3 31.7-36.3 8.1-35.4-33.1-17.3-31.7m300.3 188.8c6.6-17.6 27.3-25.2 35.9-9.8.4.8-.2 1.4-1.8-.1-10.7-10.7-24.5-.5-33.1 10.6-1.1 1.6-1.5.6-1-.7m-3.8-84.1c9.4 4.1-19.8 32.5-28.8 31.5 18.7-5.5 19.3-35.6 28.8-31.5m20.1 121l-37.4-22.1c7.4 1 14-2.3 20.1-6.7l11.4 13.9-7-17.2c7.6-6 13.8-12.3 21.5-12.5 21.1-.6 6.3 24.8 14 24.9 8.6.1 18-28.2-2.7-40.6-21.4-12.9-40.1 5.7-55.2 2.6l56.7-25.3h-82.9l-2.9-5.5c15 6.7 25.7.5 32.8-6.6l23.6 3.4-19.5-7.6c4.7-4.9 8.6-8.7 13.5-6.8 7 2.7 11.1 8.8 23.2 8.9 20.5.3 35.4-36.2 8.3-52 2 26-10 27.3-31.1 13.5l7.2-11.8-10.8 9.5c-20.2-9-30 8.9-38.5 14.7-8.5 5.7-16.3-5.8-26.6 7.9 15.4-5.1 23.2 9.7 33.4 0C415 220 400 186 385.1 199c13 1 19.7 12.5 30 12.5 19 0 2.1-36.5 28.8-36.5l-4.4-2.8c15.2-1.4 15.9 13.7 38.8 14 2.4 3.5-6 3.7-11.8 1.7-1 4.9 31 15.8 23.3-20.6 10.1 5.5 7.9 28.3-1.5 37-1.8 1.7-3.6 2.5-4.7.8-2.6-3.9 4-3.8 5.9-9.7-7.1 6.2-19.3 5.7-27.7-2-8.3-7.7-20.8-17.2-26.1-.9-5.3 16.3-9.8 23.9-19.6 24-13.5.2-27.9-22.4-42.9-9.9 28.7 2.7 35.5 48.2 60.7 48.8 19.6 0 24-8.6 36.8-8.6 12.8 0 26.2 6.7 26.2 23.6 0 10.2-5.4 15.9-5.4 15.9s3.9-8.2 1.9-18.7c-1.9-10-10.5-16.2-21.6-16.2-15.8 0-28.4 25.8-45.9 25.8-35 0-44-67.6-80.7-57.2 27 18.2 30 47.4 44.5 58.6 14.7 11.3 32.2 6.7 42 15.2 4 3.5 5.6 9.3 6.9 15.7h-3.3c-1.2-3.3-2.9-6.3-5.9-8.8-8.4-8.8-33.6-5-45.2-17.5-11.6-12.5-20.1-50.1-42.9-55.9 19.9 12.8 24.3 45.7 38.6 61.8 14.2 16.1 33 7.6 41.7 16 1.5 1.5 2.8 2.9 4 4.4h-16.3c-1.4-.2-3-.4-4.7-.5-2.6 0-5.3.2-8 .5H374c-3-.9-5.7-2.5-8.1-5-11.3-11.9-10.2-24.5-9.3-39.3 2.2 13.9 4.9 45.9 28.8 42.3-30.1-10.3-12.6-61.8-49.4-75.1-4-1.4-2.6-14.4 7.4-16.3-19.9 3.8-19.7-3.5-5.7-18.1-8.6 5.5-18.1 3.9-20.2 10.1 0 0 16.3 25.6 16.3 30.6s-10.7 25.1-11.9 25.8c-4 2.2-17.1 2.3-20.4 1.3-3.5-1.1-7.5-12-5.9-15.5 2.5-5.3 22.6-9.7 23-17.6.3-6.2-8.1-6.8-7.8-3.5 4.9 1.6 7 8.8-7.3 12.1l3.2-5.1s-10.5 8.4-11.1 8.8c-.5.4-3 .5-4.6.1-1.5-.5-16.8-7.8-14.2-15.1 0 0 4.6 2 16.1 2 11.6 0 12.7-5 12.7-5s-6.2 1.6-12.5 1.6-12.5-1.6-12.5-1.6c-5-1.2.3-7.5 2.1-7.6h12c.7 0 1.7-1.7.1-1.8-1.2 0-8.9-.2-9.4-2.1-1-3.2-3.1-23.3-3.1-23.3s2.6-6.3.4-8.3c-2.2-2.1-3.2-1-3.2-1 5 27.9-16.4 45.2-28.6 41.9l-1.5-.2c2.8 2.1 6.3 3.9 10.9 5.5-22.8 4.8-32.1-9.1-35.8-17.5-2 1-2 6.4-1.8 9.9-4.7-5.2-7.6-13.2-3.3-19-5.8 2.8-6 3.7-6 3.7.2-4.8 8.6-7.9 12.8-13.5 4.2-5.6 3.3-14.2-5.7-17.8.6 8.6-3.7 14.4-12.4 17.4-8.4 2.8-7-4.8-14.8-3.1 12.8 2.9 12.1 20.5 24.8 27.8-17-4-20-27.2-40.7-24.9 11.9-17 30.8-2.4 38.6-14.1-20.2 4.6-33.9-12.4-36.3-31.1-3.6-28.6-27.7-14.5-27.3-28.6 12.1 5.5 39.1-15.3 47 8.4 8.4 24.8 25.2 34.9 40.3 23.4l-65.9-66.9 8.3 28.1c-17.2 3.4-37.9-6.9-26.7-31-16.3-7.6-37.9 19.5-18 40.8 9.2 9.8 31.6 6.2 37.6 26.2l-21.4-1.8 21.9 5.8 6.5 19.4-51-25.2 31.4 36.6c-18.3 9.7-22.9-18.1-46.7-17.5-16.6.4-35.3 17.5-27.5 37.5 24.9-15.1 32.9-4.3 43.4 6.1l-15.3 8.2 18.1-5.5c6.4 6 14.3 11 27.4 10.1 21.5-1.6 40.4-8.5 45.3-2.7 3.8 4.5-.6 7.1-8.3 7.1H96.4l41.2 22.1c-4 3.1-15.4 17.2-23.4 17.2-7.9 0-25.7-12.2-30.4 9.2 18.3-3.1 27.6 36.9 66.1 5l-18 29.8H35.3V320h525.5v-10.3h-92.7z"/><path class="st0" d="M309.6 154.4c-14.3 1.6-12 20.9-1.3 20.9s12.3-5 20.4-5c8.1 0 11 5.3 17.5 5.3 6.4 0 10.4-4.7 7.4-8.7-4.2 6.9-11.7-2.5-17.2-2.5-8.4 0-12 3.5-17.5 6.2-6.2 3.1-12 .2-9.8-3.4-4.5-.1-7.6-5.9.5-12.8m51.7-59.3c-13.8 20.5 4.5 41.5-24.4 48.8 34.4.3 16.5-28.9 29-45.8s26.8-10.6 31.4-30.1c-7.3 15.8-28.1 15.3-36 27.1"/><path class="st0" d="M370.5 101.9c-11.1 16.4 1.7 40.1-21.5 47 29.2.7 15.2-33 25.7-44.7 9.2-13.5 17.7-11.1 22-25.4-6.2 11.3-19.9 13.7-26.2 23.1m41 50.4c-24.1-9.8-38.4 12.9-38.4 19.7 5.9-2.8 15.4-13.3 19-15.6 6.5-4.4 16.7-1.7 19.4-4.1m-56.7 35.6c1.8 3.9 8.9-4.8 19.8-1.4-5.3-3.5-20.8-3.5-19.8 1.4"/><path class="st0" d="M434.4 140.2c-5.1 23.6-49.4 6.2-49.1 39.8 9.4-16.7 52.9-15.2 49.1-39.8m-87.7 58.9c.8 5.1 9.7-5.4 26.8 1.9-6-8.5-28.1-9.4-26.8-1.9m-30.4 44.1c-2.3 1.6-7.9 3.2-12.2 6.2-.5.7-1.2 3.4-2.1 4 4.4.9 13.9-5.5 14.3-10.2m-57.8-46.6c3.1-3.3 5.2-11.1 5.7-12.3 6.7 5.1 0 14.5-5.7 12.3m-5.2-1.6c-6.9-2.6-4-16 5.2-14-.6 1.1-4.8 9.2-5.2 14m7.8-17c-6.7-1.4-14.6 5.4-22.4 8.9 7.3 10.5 24.2 11.3 31 15.1 1.5-2.3 6.6-21-8.6-24"/><path class="st0" d="M285.3 167.2c-7.3 8.6-12.6-.8-21.9-.8-8-.1-17.3 8.9-18.9 3.1-1.3-4.5 7-12 17.7-12.8-9.2-2.5-24.1 5.9-26.8 15.2-3 .3-5.4-.5-5.4-.5 3.7 15.8 19.7-.4 27.1-.4 6.8-.1 27.8 15.2 28.2-3.8m24.2-99.9c8 25.2-18.2 31.9-20.4 48.5-1.6-20.1 23.5-29.6 20.4-48.5m-26.3 4l8 20.9s-7.3 8.5-7.3 23.7c0 29.7 24.4 32.5 22.7 20.5-17.1 7.8-18-17-13.3-22.2 0 0-3.1 13 8.3 17.7-15.3-25.3 14.8-34.9 14.8-55.1 0-16.8-10.4-22.3-10.1-37.8.2-18.6 27.6-23.4 27.9-16.3.3 5.1-19.8 5.7-20.2 24.8-.3 17.9 19.8 22.3 19.3 39.7-.3 11.4-20.8 22-8.1 43.5l29.1-82.1L332 73.8c-7.1-8.9-12.7-9.7-12.7-25.7s17.8-18.3 17.8-25.8c0-6-9-6.8-15.5-7.1-10.1-.4-27.9 8.3-27.9 26.9 0 18.6 12.6 28 .1 45.5l-10.6-16.3zm-18.9 133.5c-4.1-2.8-18.8-2.3-27-10.8 0 0-.7 1.7.2 3.2-10.2 4.1-7.3 13.7-7.3 13.7s6.6-8.1 10.8-7.9c0 0-.9 6.4.9 9.4l.9 1.4c-3.5-13.3 21.5-9 21.5-9M195.6 42c-4.5-5.4 17.6-11.5 21.6 2.1-10.8-7.2-19.5.4-21.6-2.1m-6.2 45.9l18.3 8.8c.6 6.3 3.2 13 9.6 20.4 7.1 8.3 26.5 10.8 27.3 30.3 5.9-5.9 1.3-19.7-11.9-27.5-49.2-28.9 33.6-74.1-19.6-90.4 46-3.1 26.3 38.5 30 55.2 5.1 22.9 26.3 17.4 37.7 31.8l-12.5-69.8-11.8 48.6c-15.6-2.3-10.1-24.5-9.7-44.6.7-38.1-64.5-27.2-55.6-5.7 3.3 8.2 25.4-10.1 25.6 9.2.1 13.2-8.1 24.5-9 37.4l-18.4-3.7z"/><path class="st0" d="M234.7 81.9c-21.7 41 53.3 22.3 43.5 57.2 15.8-37.7-51.7-16.7-43.5-57.2M429 269.8c12.5-.3 22.3-12.6 29.4-17.1-10.1 2.3-15.5 11.4-29.4 11.7-22.8.5-34.8-64.1-73.6-50.9 40 3.1 39.1 57.1 73.6 56.3"/><path class="st0" d="M261.6 134.9c-1.1 0-2.1-.3-3-.9-5.1-3.3-7.9-12.2-13.1-11.2 3 2.3 1.7 10.7 6 15.4 2 2.3 5 3.8 8.4 3.8 6.2 0 11.1-5 11.1-11.2 0-3.6-1.7-6.8-4.3-8.8-3.9-3.1-9.5-5.1-25.8-10.7-38.8-13.2 19.3-52.6-7.5-74.6 14.7 31.7-28.2 50.6-5.9 72.8 9.7 10.1 30.8 8.5 38.1 15.7 1.1 1 1.7 2.5 1.7 4.1 0 3-2.6 5.6-5.7 5.6m-33.4 23.5c-7-.2-18.2-3.5-22.1-12.9-3.7 8.5 7.5 31.6 22.1 12.9m91.5 91.2c-.4 1.1-3.6 2.3-9.9 4.7-.9 1.5-2.8 3.8-4.8 5 7.7 2.1 16.1-5.6 14.7-9.7m32.4-68.3c1.6 2.6 3.9-2.4 8.3-4.7-5.7-.8-9.1 3.2-8.3 4.7m-30.3.6c.5 1.2 2.7 9.1 5.7 12.3-5.7 2.2-12.3-7.2-5.7-12.3m11 10.8s-4.6-13-5.2-14c9.2-2 12.1 11.3 5.2 14m14.6-7.8c-7.7-3.6-15.7-10.3-22.4-9-15.3 3-10.1 21.7-8.6 24.1 6.8-3.8 23.8-4.6 31-15.1m76.7-67.4c4.2 7.2-8.3 20.2-8.3 20.2 3.3 1.2 3.1 5.9-.9 7.1-7.4 2.2-13.3-6.1-22.8-3.7 1.9-3.4 21.7-2.7 32-23.6M381 139.6c-6.9 7.5-6.4 13.7-16.6 20.2 13.3 5.8 13.7-11.9 27-15.8 9.1-2.7 16 8.3 29 2.4 13.1-6 8.4-30.1 14.7-40.8 6.3-10.6 23.8-20.5 36.1.9 0 0-20.9-20.5-30.7 4 6.8-5.7 16.9-7.4 16.9-2-5.4 1.7-14 4.9-14.3 24-.3 22.3-9.3 27.1-16.3 31.7-10.1 6.7-33.7 6.4-38.9 21.6l81.6-36.4h-24.9c3.2-18.3-3.8-45.5 30.2-39.2 4.2-9.1-24.2-38.2-48.9-5l-2.4-8.4c-4.9 44.3-28.3 27.1-42.5 42.8"/><path class="st0" d="M222.4 169.5c-34.4.6-9.1-37.2-34.7-42.7 13.2 8.9 6 16.9 6.1 31.4 0 17.4 20.9 22.7 28.6 11.3m120.4-50.8c-4 10.8-15 13.8-20.4 23.1 3 .1 19-3.5 24.9-13.6 5.7-9.7.1-37.9 18.4-44.8 19.2-7.3 39.2-17.9 16.6-41 34.8 8.8 15.2 45.9 11.1 51.3-3.9 5.1-16.7 15.2-16.7 31.5 0 12.1-10.8 25.8-19.3 27.5 8.9 3.6 22.3-16.8 22.3-16.8l43.3-56-24.9 12.9s6.8-5.9 6.8-25.4c0-27.7-29.7-32.6-29.4-24 .2 5.7 10.1 9.7 10.4 19.1.3 9.4-12.9 14.7-23.2 17.7l-4.6-15.5v17.4c-16.8 8.7-11.1 25.3-15.3 36.6"/><path d="M85.1 390.7c-.1 3.1-.8 4.3-2.7 5.5-2 1.2-5.9 2-12 2H48v-15h22.4c6 0 10 .8 12 2 1.9 1.2 2.6 2.4 2.7 5.5M48 410.4h24.2c7.9 0 14.2-1.5 18.7-4.8 4.6-3.4 6.9-8.7 6.9-14.9 0-6.2-2.3-11.5-6.9-14.9-4.5-3.3-10.8-4.8-18.7-4.8H35v64.3h13v-24.9zm118.4 21.1c6.6-4.2 11.2-11.8 11.2-23.1V371h-13v37.4c-.3 11.2-5.9 16.2-20 16.5-14.1-.3-19.8-5.4-20-16.5V371h-13v37.4c-.1 11.3 4.6 18.9 11.2 23.1 6.6 4.2 14.6 5.3 21.9 5.3 7.1 0 15.2-1.1 21.7-5.3m76.8-37.6c-2.2 1.2-6.1 2-11.7 2h-21.9v-13h19.5c5 0 9.8.1 12.8 1 3 1.1 4 1.9 4.2 5.4-.2 2.3-.8 3.4-2.9 4.6m1 27.8c-2.4 1.1-6.3 1.5-10.2 1.5h-24.4v-15.4h25.3c5 0 8.4.9 10.3 2.2 1.9 1.3 2.7 2.8 2.7 5.8-.2 3.5-1.3 4.7-3.7 5.9m4.4 11.4c6.6-2.1 12.6-7.7 12.4-17.1 0-7.7-4-12.1-7.7-14.6 3-2.3 5.8-6.1 5.8-12.1.1-8.8-5-14-10.6-16.1-5.6-2.2-11.6-2.1-15.1-2.1h-36.8v64.3h32.9c5.1-.1 12.5 0 19.1-2.3m88.6-9.9h-44.3V371h-13v64.3h57.3zm12.7-52.2h13v64.3h-13zm88.6 38.9l-1.2 2.2c-4.4 8-10.9 12.4-22 12.5-15.4-.2-23.6-7.6-23.8-20.4.3-15.3 7.6-22.5 23.2-22.8 12.5.1 18.6 4.9 21.7 12.1l1 2.5 11.5-5.3-1-2.3c-3.6-8.9-14.3-18.9-33.4-18.9-11 0-20.1 3.1-26.5 9-6.4 5.9-9.8 14.5-9.7 24.8 0 10.1 3.5 18.6 9.9 24.5 6.4 5.9 15.6 9 26.5 9h.4c16.3 0 27.7-6.6 33.8-18.9l1.2-2.3-11.6-5.7zm26.4-38.9h13v64.3h-13zm84.8 28.8c-6.2-2.6-13.8-3.2-20.7-3.8-5.7-.5-11-1-14.4-2.2-3.5-1.4-4.5-2.4-4.6-4.8 0-2.9 1.8-4.5 5.3-5.9 3.5-1.3 8.2-1.6 11.7-1.6 15.4.2 19.6 6.9 22 9.5l1.6 1.8 9.7-7.8-1.6-2c-1.7-2.2-10.3-13.6-31.5-13.4-9.2 0-16.6 1.6-22 5.1-5.4 3.4-8.4 8.9-8.3 15.4-.1 7.7 4.9 12.5 10.9 14.7 6 2.3 13.3 3 20 3.6 5.8.6 11.3 1.1 15 2.4 3.8 1.4 5 2.6 5.1 5.1 0 3.6-2.8 5.7-7.3 7.2-4.3 1.3-9.4 1.5-11 1.5-19-.3-22-8.5-24.5-11.2l-1.7-1.9-10.1 8.6 1.9 2c3.8 4.1 11.6 14.7 33 14.7h.6c11.3 0 19.3-2.4 24.6-6.3 5.3-3.9 7.7-9.4 7.7-14.5-.2-8.4-5.2-13.8-11.4-16.2M83.9 499.3H107c-2.4 7.5-11.4 11.3-20.2 11.4-15.1-.2-23.3-7.6-23.5-20.4.3-15.3 7.5-22.4 22.8-22.7 5.4 0 17.4 1.5 21.5 11.8l1.1 2.6 11.2-5.9-.9-2.2c-4.4-10.5-16.5-18.2-32.6-18.2-11 0-20.1 3-26.5 9-6.4 5.9-9.8 14.5-9.7 24.8 0 10.1 3.4 18.6 9.9 24.5 6.4 5.9 15.5 9 26.4 9h.2c9.7 0 16.6-2.7 21.2-5.8v4.4H120v-34.3H83.9v12zm107.7-23c-.2 3.3-1 4.3-3.3 5.5-2.4 1.1-6.5 1.6-11.6 1.6h-22.1v-14.1h22.1c5.1 0 9.2.5 11.6 1.6 2.3 1.2 3.1 2.2 3.3 5.4m12.6.1c0-6.1-2.3-11.4-7-14.6-4.6-3.2-10.9-4.6-19-4.7h-36.7v64.4h13v-25.9H173l18.8 25.9H208l-19.8-26.7c8-1.9 16-7.5 16-18.4m74.4 11.9c-.1 16.8-11.9 22.1-24.1 22.4-12.2-.3-23.9-5.6-24-22.4.1-12.3 9.3-20.7 24-20.8 14.6.1 24 8.5 24.1 20.8m-24.1-32.7c-11 0-20.3 3.2-26.9 9.2-6.6 6-10.3 14.6-10.2 24.8 0 11.2 4.9 19.8 12 25.3 7.1 5.4 16.3 8 25.1 8s18-2.5 25.1-8c7.2-5.4 12.1-14 12.1-25.3 0-10.2-3.7-18.8-10.3-24.8-6.6-5.9-15.9-9.2-26.9-9.2m104.6 38.8c-.3 11.2-5.9 16.2-20 16.6-14.1-.4-19.8-5.4-20.1-16.6V457h-13v37.4c0 11.3 4.6 18.9 11.2 23.1 6.6 4.2 14.6 5.3 21.8 5.3 7.2 0 15.2-1.1 21.8-5.3 6.6-4.2 11.3-11.8 11.2-23.1V457h-13v37.4zm80.4-17.5c-.1 3.1-.7 4.3-2.7 5.5-2 1.2-6 2-12 1.9h-22.4v-15.1h22.4c6.1 0 10 .8 12 2 1.9 1.3 2.6 2.5 2.7 5.7m5.8-15c-4.5-3.3-10.8-4.8-18.7-4.8h-37.2v64.3h13v-24.9h24.2c8 0 14.2-1.5 18.7-4.8 4.6-3.4 6.8-8.7 6.8-14.9.1-6.3-2.2-11.6-6.8-14.9M478 494h37.9v-12.1H478v-12.6h45.4v-12.2H465v64.3h59.3v-12.1H478z"/></svg>